<?xml version="1.0" encoding="UTF-8"?>
<svg version="1.1" xmlns="http://www.w3.org/2000/svg" width="189" height="208">
<path d="M0 0 C62.37 0 124.74 0 189 0 C189 68.64 189 137.28 189 208 C126.63 208 64.26 208 0 208 C0 139.36 0 70.72 0 0 Z " fill="#FEFEFE" transform="translate(0,0)"/>
<path d="M0 0 C1.44967415 -0.0076664 1.44967415 -0.0076664 2.92863464 -0.01548767 C6.11923436 -0.02937305 9.30961782 -0.02842773 12.50024414 -0.02612305 C14.72074972 -0.03001043 16.94125455 -0.03434519 19.16175842 -0.03910828 C23.81456921 -0.04656813 28.4673041 -0.04628079 33.12011719 -0.04101562 C39.07987551 -0.03522007 45.03932316 -0.05215541 50.99903011 -0.0753603 C55.58441481 -0.09009802 60.16972468 -0.09096929 64.75512886 -0.08785057 C66.95234353 -0.08836372 69.14956239 -0.09360024 71.34675407 -0.10366249 C74.42017641 -0.11601062 77.49299347 -0.10924475 80.56640625 -0.09765625 C81.47205322 -0.10529999 82.3777002 -0.11294373 83.31079102 -0.12081909 C88.36623844 -0.07872637 92.04374332 0.31796214 96.34790039 3.2746582 C98.83819015 6.53467694 98.61825073 9.87455944 98.65429688 13.87573242 C98.66262039 14.52992157 98.67094391 15.18411072 98.67951965 15.85812378 C98.70356435 18.01525875 98.71238468 20.17209104 98.71899414 22.3293457 C98.7279646 23.83383268 98.73708652 25.33831877 98.74635315 26.84280396 C98.76283057 29.99507818 98.77054098 33.14724635 98.7734375 36.29956055 C98.77882063 40.33040934 98.81650152 44.36025565 98.86218166 48.39082146 C98.89198715 51.49817507 98.89916179 54.60528825 98.90016365 57.71277237 C98.90435897 59.19830035 98.91676583 60.6838295 98.9376812 62.16921616 C99.10698081 75.23219026 99.10698081 75.23219026 96.00048828 79.16967773 C91.67742446 82.60027656 87.89525831 82.409721 82.61743164 82.37231445 C81.86701096 82.37089951 81.11659027 82.36948456 80.34342957 82.36802673 C77.94904579 82.3624338 75.55475586 82.34988264 73.16040039 82.3371582 C71.53605278 82.33214229 69.91170371 82.32757954 68.28735352 82.32348633 C64.30747065 82.313318 60.32779046 82.29374132 56.34790039 82.2746582 C56.34790039 88.5446582 56.34790039 94.8146582 56.34790039 101.2746582 C59.97790039 101.2746582 63.60790039 101.2746582 67.34790039 101.2746582 C67.34790039 102.2646582 67.34790039 103.2546582 67.34790039 104.2746582 C50.18790039 104.2746582 33.02790039 104.2746582 15.34790039 104.2746582 C15.34790039 103.2846582 15.34790039 102.2946582 15.34790039 101.2746582 C18.31790039 101.2746582 21.28790039 101.2746582 24.34790039 101.2746582 C24.34790039 95.0046582 24.34790039 88.7346582 24.34790039 82.2746582 C20.61026367 82.29206055 20.61026367 82.29206055 16.79711914 82.30981445 C14.3844414 82.31761268 11.97176506 82.32368509 9.55908203 82.32958984 C7.88199231 82.33461933 6.20490697 82.34144368 4.52783203 82.35009766 C2.11758339 82.3622238 -0.29260729 82.36790035 -2.70288086 82.37231445 C-3.45297928 82.37747574 -4.2030777 82.38263702 -4.97590637 82.38795471 C-8.14161193 82.38829605 -10.62547933 82.28353163 -13.65209961 81.2746582 C-19.03560974 74.74715979 -18.21681591 67.14516517 -18.14819336 59.1105957 C-18.14834852 57.63042123 -18.1498404 56.15024636 -18.15260315 54.67007446 C-18.15398292 51.57844938 -18.14149778 48.48729062 -18.11865234 45.39575195 C-18.09021852 41.44018866 -18.09302391 37.48539644 -18.10574245 33.52977562 C-18.11270712 30.47734019 -18.10490229 27.42508201 -18.09248543 24.37266922 C-18.08798206 22.91427923 -18.08762436 21.45587014 -18.09155083 19.99747849 C-18.09447172 17.95881753 -18.0757649 15.9201605 -18.05615234 13.8815918 C-18.05074936 12.72356049 -18.04534637 11.56552917 -18.03977966 10.37240601 C-17.59976128 6.85645008 -16.87530025 5.02630294 -14.65209961 2.2746582 C-10.19479489 -0.49550612 -5.08053989 -0.01386693 0 0 Z " fill="#FDFCF3" transform="translate(55.652099609375,34.725341796875)"/>
<path d="M0 0 C1.44967415 -0.0076664 1.44967415 -0.0076664 2.92863464 -0.01548767 C6.11923436 -0.02937305 9.30961782 -0.02842773 12.50024414 -0.02612305 C14.72074972 -0.03001043 16.94125455 -0.03434519 19.16175842 -0.03910828 C23.81456921 -0.04656813 28.4673041 -0.04628079 33.12011719 -0.04101562 C39.07987551 -0.03522007 45.03932316 -0.05215541 50.99903011 -0.0753603 C55.58441481 -0.09009802 60.16972468 -0.09096929 64.75512886 -0.08785057 C66.95234353 -0.08836372 69.14956239 -0.09360024 71.34675407 -0.10366249 C74.42017641 -0.11601062 77.49299347 -0.10924475 80.56640625 -0.09765625 C81.47205322 -0.10529999 82.3777002 -0.11294373 83.31079102 -0.12081909 C88.36623844 -0.07872637 92.04374332 0.31796214 96.34790039 3.2746582 C98.83819015 6.53467694 98.61825073 9.87455944 98.65429688 13.87573242 C98.66262039 14.52992157 98.67094391 15.18411072 98.67951965 15.85812378 C98.70356435 18.01525875 98.71238468 20.17209104 98.71899414 22.3293457 C98.7279646 23.83383268 98.73708652 25.33831877 98.74635315 26.84280396 C98.76283057 29.99507818 98.77054098 33.14724635 98.7734375 36.29956055 C98.77882063 40.33040934 98.81650152 44.36025565 98.86218166 48.39082146 C98.89198715 51.49817507 98.89916179 54.60528825 98.90016365 57.71277237 C98.90435897 59.19830035 98.91676583 60.6838295 98.9376812 62.16921616 C99.10698081 75.23219026 99.10698081 75.23219026 96.00048828 79.16967773 C91.67742446 82.60027656 87.89525831 82.409721 82.61743164 82.37231445 C81.86701096 82.37089951 81.11659027 82.36948456 80.34342957 82.36802673 C77.94904579 82.3624338 75.55475586 82.34988264 73.16040039 82.3371582 C71.53605278 82.33214229 69.91170371 82.32757954 68.28735352 82.32348633 C64.30747065 82.313318 60.32779046 82.29374132 56.34790039 82.2746582 C56.34790039 88.5446582 56.34790039 94.8146582 56.34790039 101.2746582 C59.97790039 101.2746582 63.60790039 101.2746582 67.34790039 101.2746582 C67.34790039 102.2646582 67.34790039 103.2546582 67.34790039 104.2746582 C50.18790039 104.2746582 33.02790039 104.2746582 15.34790039 104.2746582 C15.34790039 103.2846582 15.34790039 102.2946582 15.34790039 101.2746582 C18.31790039 101.2746582 21.28790039 101.2746582 24.34790039 101.2746582 C24.34790039 95.0046582 24.34790039 88.7346582 24.34790039 82.2746582 C20.61026367 82.29206055 20.61026367 82.29206055 16.79711914 82.30981445 C14.3844414 82.31761268 11.97176506 82.32368509 9.55908203 82.32958984 C7.88199231 82.33461933 6.20490697 82.34144368 4.52783203 82.35009766 C2.11758339 82.3622238 -0.29260729 82.36790035 -2.70288086 82.37231445 C-3.45297928 82.37747574 -4.2030777 82.38263702 -4.97590637 82.38795471 C-8.14161193 82.38829605 -10.62547933 82.28353163 -13.65209961 81.2746582 C-19.03560974 74.74715979 -18.21681591 67.14516517 -18.14819336 59.1105957 C-18.14834852 57.63042123 -18.1498404 56.15024636 -18.15260315 54.67007446 C-18.15398292 51.57844938 -18.14149778 48.48729062 -18.11865234 45.39575195 C-18.09021852 41.44018866 -18.09302391 37.48539644 -18.10574245 33.52977562 C-18.11270712 30.47734019 -18.10490229 27.42508201 -18.09248543 24.37266922 C-18.08798206 22.91427923 -18.08762436 21.45587014 -18.09155083 19.99747849 C-18.09447172 17.95881753 -18.0757649 15.9201605 -18.05615234 13.8815918 C-18.05074936 12.72356049 -18.04534637 11.56552917 -18.03977966 10.37240601 C-17.59976128 6.85645008 -16.87530025 5.02630294 -14.65209961 2.2746582 C-10.19479489 -0.49550612 -5.08053989 -0.01386693 0 0 Z M-14.65209961 7.2746582 C-14.74580585 9.05457744 -14.76954232 10.8382256 -14.765625 12.62060547 C-14.76550415 13.77774048 -14.7653833 14.93487549 -14.76525879 16.1270752 C-14.76014282 17.35269165 -14.75502686 18.57830811 -14.74975586 19.84106445 C-14.74874878 20.96057495 -14.7477417 22.08008545 -14.7467041 23.23352051 C-14.74145311 27.43474342 -14.727492 31.63595179 -14.71459961 35.8371582 C-14.69397461 45.2215332 -14.67334961 54.6059082 -14.65209961 64.2746582 C7.45790039 64.2746582 29.56790039 64.2746582 52.34790039 64.2746582 C52.34790039 58.9946582 52.34790039 53.7146582 52.34790039 48.2746582 C50.55352539 47.8415332 48.75915039 47.4084082 46.91040039 46.9621582 C44.72272209 46.40035206 42.53521976 45.8378602 40.34790039 45.2746582 C39.4468457 45.06969727 38.54579102 44.86473633 37.61743164 44.65356445 C35.31635046 44.04920219 33.39257124 43.49395733 31.34790039 42.2746582 C29.97290039 38.7746582 29.97290039 38.7746582 29.34790039 35.2746582 C28.0552534 33.31034415 28.0552534 33.31034415 26.34790039 32.2746582 C25.35790039 32.2746582 24.36790039 32.2746582 23.34790039 32.2746582 C22.85290039 30.7896582 22.85290039 30.7896582 22.34790039 29.2746582 C21.02790039 29.2746582 19.70790039 29.2746582 18.34790039 29.2746582 C18.34790039 29.9346582 18.34790039 30.5946582 18.34790039 31.2746582 C9.76790039 31.2746582 1.18790039 31.2746582 -7.65209961 31.2746582 C-7.32209961 29.6246582 -6.99209961 27.9746582 -6.65209961 26.2746582 C-2.39817194 26.10738383 1.85593848 25.94679062 6.11035156 25.79248047 C7.5586634 25.73899584 9.00690814 25.68366161 10.45507812 25.62646484 C12.53248621 25.54473309 14.61004209 25.46958053 16.68774414 25.39575195 C17.93934326 25.34862061 19.19094238 25.30148926 20.48046875 25.25292969 C23.34790039 25.2746582 23.34790039 25.2746582 24.34790039 26.2746582 C26.69777301 26.50993593 29.05346078 26.68852237 31.41040039 26.8371582 C32.70075195 26.92094727 33.99110352 27.00473633 35.32055664 27.09106445 C36.8190918 27.18194336 36.8190918 27.18194336 38.34790039 27.2746582 C38.34790039 27.9346582 38.34790039 28.5946582 38.34790039 29.2746582 C36.03790039 29.6046582 33.72790039 29.9346582 31.34790039 30.2746582 C31.84290039 31.7596582 31.84290039 31.7596582 32.34790039 33.2746582 C35.2626428 34.49731508 35.2626428 34.49731508 38.72290039 35.3996582 C39.88563477 35.73223633 41.04836914 36.06481445 42.24633789 36.4074707 C43.26985352 36.69364258 44.29336914 36.97981445 45.34790039 37.2746582 C46.33790039 37.6046582 47.32790039 37.9346582 48.34790039 38.2746582 C50.20767005 38.38940617 52.07081904 38.45286902 53.93383789 38.4855957 C55.02954102 38.51395508 56.12524414 38.54231445 57.25415039 38.5715332 C59.55867862 38.62343699 61.86339056 38.66776122 64.16821289 38.7043457 C65.81563477 38.75075195 65.81563477 38.75075195 67.49633789 38.7980957 C68.49842285 38.81791504 69.50050781 38.83773437 70.53295898 38.8581543 C73.81611073 39.34393547 75.70511393 40.28467966 78.34790039 42.2746582 C79.47685694 44.76011294 80.29715592 46.93192333 81.03540039 49.5246582 C81.23456055 50.16790039 81.4337207 50.81114258 81.63891602 51.47387695 C82.2304771 53.40178421 82.79370444 55.33570607 83.34790039 57.2746582 C83.63914795 58.28689453 83.63914795 58.28689453 83.9362793 59.31958008 C84.40967982 60.9704553 84.87920173 62.62244193 85.34790039 64.2746582 C88.64790039 64.2746582 91.94790039 64.2746582 95.34790039 64.2746582 C95.46381856 56.91204096 95.55262687 49.54962086 95.60696125 42.18627548 C95.6330413 38.76700328 95.66840689 35.34835592 95.72509766 31.92944336 C95.78988266 27.99771642 95.81409429 24.06624132 95.83618164 20.1340332 C95.86198807 18.90787292 95.88779449 17.68171265 95.91438293 16.418396 C95.91476059 15.27751526 95.91513824 14.13663452 95.91552734 12.96118164 C95.9266304 11.95746521 95.93773346 10.95374878 95.94917297 9.9196167 C95.52555888 7.130243 95.52555888 7.130243 93.41093445 4.9506073 C89.13315043 2.61000379 85.57584966 2.72133623 80.77172852 2.77294922 C79.81342636 2.76754623 78.85512421 2.76214325 77.86778259 2.75657654 C74.70458965 2.74408386 71.5423059 2.76058432 68.37915039 2.77856445 C66.17866976 2.77840948 63.97818886 2.77692075 61.77770996 2.77415466 C57.16768313 2.77277042 52.55796732 2.78533326 47.94799805 2.80810547 C42.03966846 2.83648987 36.13185568 2.83375296 30.22348785 2.82101536 C25.68015125 2.81405942 21.13693403 2.82184656 16.59361267 2.83427238 C14.41512001 2.83878769 12.23661454 2.839123 10.05812073 2.83520699 C7.01317079 2.83229567 3.9689323 2.84879853 0.92407227 2.87060547 C0.02418076 2.86610382 -0.87571075 2.86160217 -1.8028717 2.85696411 C-7.03298527 2.91917804 -10.76583161 3.3883902 -14.65209961 7.2746582 Z " fill="#E1BC5D" transform="translate(55.652099609375,34.725341796875)"/>
<path d="M0 0 C36.3 0 72.6 0 110 0 C110 7 110 7 109 10 C106.21629681 11.81620049 103.99817217 12.252457 100.71154785 12.26742554 C99.86200027 12.27595551 99.0124527 12.28448547 98.13716125 12.29327393 C96.75152229 12.29191437 96.75152229 12.29191437 95.33789062 12.29052734 C93.86898628 12.30060318 93.86898628 12.30060318 92.3704071 12.31088257 C89.13230319 12.32988599 85.8944062 12.33378765 82.65625 12.3359375 C80.40710362 12.34236265 78.15795808 12.3490908 75.90881348 12.35610962 C71.19456035 12.36808744 66.48038055 12.3717898 61.76611328 12.37060547 C55.71973933 12.37040199 49.67383389 12.3977318 43.62757111 12.43214989 C38.9830712 12.45436251 34.33868517 12.45844478 29.69413757 12.45738602 C27.46455771 12.45974942 25.23497506 12.46861427 23.00544739 12.48405075 C19.89066489 12.50360089 16.77690765 12.49791612 13.66210938 12.48583984 C12.73835007 12.49707886 11.81459076 12.50831787 10.86283875 12.51989746 C7.087806 12.48262037 4.68925653 12.40509291 1.39611816 10.46963501 C0 8 0 8 0 0 Z " fill="#FDFEF8" transform="translate(41,102)"/>
<path d="M0 0 C0.33 0 0.66 0 1 0 C1 20.46 1 40.92 1 62 C1.66 62 2.32 62 3 62 C3.12117188 62.56589844 3.24234375 63.13179687 3.3671875 63.71484375 C3.61855469 64.81505859 3.61855469 64.81505859 3.875 65.9375 C4.03742187 66.66839844 4.19984375 67.39929688 4.3671875 68.15234375 C4.82961523 70.20700294 4.82961523 70.20700294 7 71 C8.34673528 71.0935148 9.69796517 71.12629376 11.04794312 71.12698364 C11.89474136 71.12980347 12.74153961 71.13262329 13.61399841 71.13552856 C14.54494827 71.13350433 15.47589813 71.1314801 16.43505859 71.12939453 C17.90352486 71.13202301 17.90352486 71.13202301 19.4016571 71.13470459 C22.65060173 71.13911989 25.89949228 71.13618578 29.1484375 71.1328125 C31.40044159 71.13348574 33.65244562 71.13445593 35.90444946 71.13571167 C40.6306426 71.1371883 45.35681687 71.13503561 50.08300781 71.13037109 C56.14495538 71.12468036 62.20685862 71.12794888 68.26880455 71.13394356 C72.92186823 71.13755568 77.57492139 71.13640746 82.22798538 71.13381577 C84.463131 71.13314796 86.69827758 71.13396981 88.93342209 71.13629532 C92.05769126 71.13883176 95.18188853 71.13496685 98.30615234 71.12939453 C99.23305374 71.13141876 100.15995514 71.13344299 101.11494446 71.13552856 C102.3936013 71.13129883 102.3936013 71.13129883 103.6980896 71.12698364 C104.43661352 71.12660662 105.17513744 71.12622959 105.93604088 71.12584114 C108.06609986 70.99596984 109.95111066 70.58238454 112 70 C112.33 67.36 112.66 64.72 113 62 C113.66 62 114.32 62 115 62 C115 41.54 115 21.08 115 0 C115.33 0 115.66 0 116 0 C116.11601562 8.7623628 116.20477624 17.52445992 116.25906086 26.28742409 C116.28511926 30.35676896 116.32044705 34.42558714 116.37719727 38.49462891 C116.43165351 42.42392503 116.4614488 46.35271562 116.47438622 50.28236008 C116.4836019 51.77908661 116.50159863 53.27578648 116.52865028 54.77229691 C116.75773115 67.97407633 116.75773115 67.97407633 113.65698242 71.90380859 C109.32709708 75.3198148 105.54566161 75.13505078 100.26953125 75.09765625 C99.51911057 75.0962413 98.76868988 75.09482635 97.99552917 75.09336853 C95.6011454 75.0877756 93.20685547 75.07522444 90.8125 75.0625 C89.18815239 75.05748408 87.56380332 75.05292134 85.93945312 75.04882812 C81.95957025 75.0386598 77.97989007 75.01908312 74 75 C74 81.27 74 87.54 74 94 C77.63 94 81.26 94 85 94 C85 94.99 85 95.98 85 97 C67.84 97 50.68 97 33 97 C33 96.01 33 95.02 33 94 C35.97 94 38.94 94 42 94 C42 87.73 42 81.46 42 75 C38.26236328 75.01740234 38.26236328 75.01740234 34.44921875 75.03515625 C32.03654101 75.04295448 29.62386467 75.04902689 27.21118164 75.05493164 C25.53409192 75.05996113 23.85700658 75.06678548 22.17993164 75.07543945 C19.769683 75.08756559 17.35949232 75.09324215 14.94921875 75.09765625 C14.19912033 75.10281754 13.44902191 75.10797882 12.67619324 75.11329651 C9.51048768 75.11363785 7.02662028 75.00887343 4 74 C-1.4485713 67.44142067 -0.50969055 59.74013784 -0.390625 51.66015625 C-0.38315516 50.1680121 -0.37746574 48.67585807 -0.37347412 47.18370056 C-0.35827597 43.27575103 -0.31904585 39.3684058 -0.2746582 35.46069336 C-0.23357879 31.46541516 -0.21543621 27.47003835 -0.1953125 23.47460938 C-0.15254466 15.6494655 -0.08436564 7.82481775 0 0 Z " fill="#E3C061" transform="translate(38,42)"/>
<path d="M0 0 C3.95401939 0.41187702 6.80211882 0.9142441 10.48828125 2.51171875 C16.87820934 4.97695508 23.66734824 4.47022228 30.41992188 4.52734375 C31.96583008 4.56021484 31.96583008 4.56021484 33.54296875 4.59375 C34.47133545 4.60083984 35.39970215 4.60792969 36.35620117 4.61523438 C39.57084313 5.08307773 41.42146193 6.03709905 44 8 C45.02661133 9.85351563 45.02661133 9.85351563 45.58203125 11.90625 C45.79150391 12.65003906 46.00097656 13.39382812 46.21679688 14.16015625 C46.41337891 14.93230469 46.60996094 15.70445313 46.8125 16.5 C47.13637695 17.65822266 47.13637695 17.65822266 47.46679688 18.83984375 C48.3362981 22.02525458 49 24.67819021 49 28 C47.68 28 46.36 28 45 28 C44.34 25.03 43.68 22.06 43 19 C41.68 18.67 40.36 18.34 39 18 C39 21.3 39 24.6 39 28 C33.39 28 27.78 28 22 28 C22 22.06 22 16.12 22 10 C20.7625 9.938125 19.525 9.87625 18.25 9.8125 C12.17336569 9.13516815 6.24296534 7.15769504 1 4 C0.15625 1.83203125 0.15625 1.83203125 0 0 Z " fill="#FDFCF1" transform="translate(89,71)"/>
<path d="M0 0 C2.39254576 0.22560676 4.78928123 0.40848595 7.1875 0.5625 C9.09595703 0.68818359 9.09595703 0.68818359 11.04296875 0.81640625 C12.01878906 0.87699219 12.99460938 0.93757813 14 1 C14 2.32 14 3.64 14 5 C11.69 5 9.38 5 7 5 C7.87493443 7.32225334 7.87493443 7.32225334 10.8359375 8.03515625 C12.58777344 8.54369141 12.58777344 8.54369141 14.375 9.0625 C15.53773437 9.40410156 16.70046875 9.74570313 17.8984375 10.09765625 C18.92195313 10.39542969 19.94546875 10.69320312 21 11 C21.99 11.33 22.98 11.66 24 12 C25.84830874 12.10320686 27.6997109 12.15491524 29.55078125 12.17578125 C31.18756836 12.21155273 31.18756836 12.21155273 32.85742188 12.24804688 C35.14890292 12.29079355 37.44062624 12.32216413 39.73242188 12.34179688 C50.6537719 12.61820538 50.6537719 12.61820538 55 17 C56.2567486 19.51057452 57.10645566 21.54424818 57.875 24.1875 C58.08278076 24.85080322 58.29056152 25.51410645 58.50463867 26.19750977 C60.02027382 31.32346396 60.4643474 35.7064396 60 41 C56.04 41 52.08 41 48 41 C48 37.04 48 33.08 48 29 C49.65 29.33 51.3 29.66 53 30 C53.495 34.455 53.495 34.455 54 39 C55.32 39 56.64 39 58 39 C57.21083104 36.43670692 56.41875681 33.87437241 55.625 31.3125 C55.40328125 30.59126953 55.1815625 29.87003906 54.953125 29.12695312 C53.27491526 23.44547943 53.27491526 23.44547943 51 18 C48.03782552 17.01260851 46.0742711 16.87607714 42.984375 16.859375 C30.60927496 16.65945416 20.4796013 15.69331766 9 11 C7.66935979 10.65607339 6.33649708 10.32041291 5 10 C-0.81012658 7.37974684 -0.81012658 7.37974684 -2 5 C-4.02463255 4.34786708 -4.02463255 4.34786708 -6 4 C-6 4.66 -6 5.32 -6 6 C-14.58 6 -23.16 6 -32 6 C-32 1 -32 1 -31 0 C-26.38620907 -0.38711748 -21.75178606 -0.47062245 -17.125 -0.625 C-15.81917969 -0.6765625 -14.51335937 -0.728125 -13.16796875 -0.78125 C-11.29431641 -0.84699219 -11.29431641 -0.84699219 -9.3828125 -0.9140625 C-8.23184082 -0.9548291 -7.08086914 -0.9955957 -5.89501953 -1.03759766 C-3 -1 -3 -1 0 0 Z " fill="#E0B95B" transform="translate(80,60)"/>
<path d="M0 0 C9.24 0 18.48 0 28 0 C28 6.27 28 12.54 28 19 C18.76 19 9.52 19 0 19 C0 12.73 0 6.46 0 0 Z " fill="#FDFDFA" transform="translate(82,117)"/>
<path d="M0 0 C0.33 0 0.66 0 1 0 C1 18.48 1 36.96 1 56 C22.45 56 43.9 56 66 56 C66 51.38 66 46.76 66 42 C65.01 42.495 65.01 42.495 64 43 C63.34786708 45.02463255 63.34786708 45.02463255 63 47 C62.34 47 61.68 47 61 47 C60.34 48.32 59.68 49.64 59 51 C57.02 50.34 55.04 49.68 53 49 C53 47.02 53 45.04 53 43 C54.98 42.505 54.98 42.505 57 42 C55.59933261 41.16021933 54.17792662 40.35504418 52.75 39.5625 C51.96109375 39.11003906 51.1721875 38.65757813 50.359375 38.19140625 C40.96728049 34.86048901 30.08156694 35.87079313 20.25 35.9375 C18.96867187 35.94201172 17.68734375 35.94652344 16.3671875 35.95117188 C13.24474069 35.9628228 10.12239682 35.97917975 7 36 C7 35.01 7 34.02 7 33 C9.70096077 31.64951961 11.82726517 31.87036423 14.84765625 31.8671875 C16.00974609 31.86589844 17.17183594 31.86460938 18.36914062 31.86328125 C19.58794922 31.86714844 20.80675781 31.87101562 22.0625 31.875 C23.28517578 31.87113281 24.50785156 31.86726563 25.76757812 31.86328125 C26.92837891 31.86457031 28.08917969 31.86585937 29.28515625 31.8671875 C30.35644775 31.86831543 31.42773926 31.86944336 32.53149414 31.87060547 C35 32 35 32 36 33 C36.33 32.01 36.66 31.02 37 30 C37.66 29.67 38.32 29.34 39 29 C40.13350534 26.98330173 40.13350534 26.98330173 41 25 C44.67230705 28.07999946 45.56802365 30.2482602 46 35 C52.92552955 37.42393534 59.8662487 39.27806003 67 41 C67 46.28 67 51.56 67 57 C44.89 57 22.78 57 0 57 C0 38.19 0 19.38 0 0 Z " fill="#FEF3BB" transform="translate(41,42)"/>
<path d="M0 0 C36.3 0 72.6 0 110 0 C110 7 110 7 109 10 C106.21629681 11.81620049 103.99817217 12.252457 100.71154785 12.26742554 C99.86200027 12.27595551 99.0124527 12.28448547 98.13716125 12.29327393 C96.75152229 12.29191437 96.75152229 12.29191437 95.33789062 12.29052734 C93.86898628 12.30060318 93.86898628 12.30060318 92.3704071 12.31088257 C89.13230319 12.32988599 85.8944062 12.33378765 82.65625 12.3359375 C80.40710362 12.34236265 78.15795808 12.3490908 75.90881348 12.35610962 C71.19456035 12.36808744 66.48038055 12.3717898 61.76611328 12.37060547 C55.71973933 12.37040199 49.67383389 12.3977318 43.62757111 12.43214989 C38.9830712 12.45436251 34.33868517 12.45844478 29.69413757 12.45738602 C27.46455771 12.45974942 25.23497506 12.46861427 23.00544739 12.48405075 C19.89066489 12.50360089 16.77690765 12.49791612 13.66210938 12.48583984 C12.73835007 12.49707886 11.81459076 12.50831787 10.86283875 12.51989746 C7.087806 12.48262037 4.68925653 12.40509291 1.39611816 10.46963501 C0 8 0 8 0 0 Z M2 1 C2.07908908 8.28373595 2.07908908 8.28373595 4 10 C7.09443039 10.10067221 10.16658393 10.13614292 13.26147461 10.12939453 C14.23376511 10.13114685 15.2060556 10.13289917 16.20780945 10.13470459 C19.43933875 10.13912542 22.67081384 10.13618408 25.90234375 10.1328125 C28.1381481 10.13348553 30.37395237 10.13445554 32.60975647 10.13571167 C37.30323989 10.137189 41.99670433 10.13503316 46.69018555 10.13037109 C52.71760796 10.12467708 58.74498581 10.12795053 64.77240658 10.13394356 C69.39193561 10.13755102 74.01145401 10.13640967 78.63098335 10.13381577 C80.85382658 10.13314684 83.07667075 10.13397372 85.29951286 10.13629532 C88.40274497 10.1388245 91.5059042 10.13497729 94.60913086 10.12939453 C95.99859924 10.13243088 95.99859924 10.13243088 97.4161377 10.13552856 C98.25885727 10.13270874 99.10157684 10.12988892 99.96983337 10.12698364 C101.07127135 10.1264181 101.07127135 10.1264181 102.19496059 10.12584114 C104.10204309 10.10894734 104.10204309 10.10894734 106 9 C106 8.01 106 7.02 106 6 C106.66 6 107.32 6 108 6 C108 4.35 108 2.7 108 1 C73.02 1 38.04 1 2 1 Z " fill="#FEF7C4" transform="translate(41,102)"/>
<path d="M0 0 C2.8100346 1.79363911 4.50940468 3.01880935 6 6 C6.59873168 11.26883876 5.25400021 13.8846468 2 18 C-1.22191953 19.61095977 -4.50689029 19.44749207 -8 19 C-11 17.625 -11 17.625 -13 15 C-14.0396698 9.94652302 -13.79631782 6.24424659 -11 1.875 C-7.17647328 -0.5147042 -4.39744493 -0.98609371 0 0 Z " fill="#E3C061" transform="translate(125,52)"/>
<path d="M0 0 C16.83 0 33.66 0 51 0 C51 1.65 51 3.3 51 5 C46.29040591 5.17044981 41.58060171 5.33063294 36.87036133 5.48217773 C35.27521872 5.53484225 33.68015883 5.5900897 32.08520508 5.64819336 C21.63710002 6.02662866 11.42061339 5.92659882 1 5 C0.67 3.35 0.34 1.7 0 0 Z " fill="#F3E0A4" transform="translate(49,47)"/>
<path d="M0 0 C11.22 0 22.44 0 34 0 C34 0.33 34 0.66 34 1 C18.655 1.495 18.655 1.495 3 2 C2.67 6.95 2.34 11.9 2 17 C3.918125 16.9690625 3.918125 16.9690625 5.875 16.9375 C9.75 16.875 9.75 16.875 12 18 C12.042721 19.66611905 12.04063832 21.33382885 12 23 C9.82217319 25.17782681 4.74896922 24.26089916 1.71484375 24.31640625 C0.78402481 24.33718735 -0.14679413 24.35796844 -1.1058197 24.37937927 C-4.09130182 24.44497931 -7.07687484 24.50380802 -10.0625 24.5625 C-12.08138976 24.6056753 -14.1002702 24.64928925 -16.11914062 24.69335938 C-21.07933297 24.80067129 -26.03961709 24.90190888 -31 25 C-31.33 25.66 -31.66 26.32 -32 27 C-32.66 27 -33.32 27 -34 27 C-34.33 26.34 -34.66 25.68 -35 25 C-38.02934491 24.34227572 -38.02934491 24.34227572 -41 24 C-41 23.34 -41 22.68 -41 22 C-23.84 22 -6.68 22 11 22 C11 21.01 11 20.02 11 19 C7.37 19 3.74 19 0 19 C0 12.73 0 6.46 0 0 Z " fill="#FEFCDD" transform="translate(112,117)"/>
<path d="M0 0 C3.95401939 0.41187702 6.80211882 0.9142441 10.48828125 2.51171875 C16.87820934 4.97695508 23.66734824 4.47022228 30.41992188 4.52734375 C31.96583008 4.56021484 31.96583008 4.56021484 33.54296875 4.59375 C34.47133545 4.60083984 35.39970215 4.60792969 36.35620117 4.61523438 C39.57084313 5.08307773 41.42146193 6.03709905 44 8 C45.02661133 9.85351563 45.02661133 9.85351563 45.58203125 11.90625 C45.79150391 12.65003906 46.00097656 13.39382812 46.21679688 14.16015625 C46.41337891 14.93230469 46.60996094 15.70445313 46.8125 16.5 C47.13637695 17.65822266 47.13637695 17.65822266 47.46679688 18.83984375 C48.3362981 22.02525458 49 24.67819021 49 28 C47.68 28 46.36 28 45 28 C44.89042969 27.37351562 44.78085938 26.74703125 44.66796875 26.1015625 C44.43013672 24.87566406 44.43013672 24.87566406 44.1875 23.625 C44.03667969 22.81289062 43.88585937 22.00078125 43.73046875 21.1640625 C43.12455058 18.64179359 43.12455058 18.64179359 40 17 C41.32 16.67 42.64 16.34 44 16 C43.505 12.535 43.505 12.535 43 9 C40.14839609 8.18565857 37.63373869 7.88118758 34.671875 7.90234375 C33.47304687 7.90717773 33.47304687 7.90717773 32.25 7.91210938 C31.425 7.92048828 30.6 7.92886719 29.75 7.9375 C28.90953125 7.94201172 28.0690625 7.94652344 27.203125 7.95117188 C25.13538599 7.96292039 23.06768376 7.98085478 21 8 C21.33 8.66 21.66 9.32 22 10 C14.48953203 9.6244766 7.50703462 7.91900949 1 4 C0.15625 1.83203125 0.15625 1.83203125 0 0 Z " fill="#FEF6C6" transform="translate(89,71)"/>
<path d="M0 0 C1.24136719 -0.04576172 2.48273438 -0.09152344 3.76171875 -0.13867188 C12.75667064 -0.2500195 12.75667064 -0.2500195 15.72460938 1.80419922 C17.109375 3.46484375 17.109375 3.46484375 18.75 6.4375 C18.09 6.7675 17.43 7.0975 16.75 7.4375 C16.42 6.7775 16.09 6.1175 15.75 5.4375 C13.72536745 4.78536708 13.72536745 4.78536708 11.75 4.4375 C11.75 5.0975 11.75 5.7575 11.75 6.4375 C3.17 6.4375 -5.41 6.4375 -14.25 6.4375 C-14.25 -2.64743547 -7.63758107 0.11358454 0 0 Z " fill="#FEF6CC" transform="translate(62.25,59.5625)"/>
<path d="M0 0 C0.99 0.33 1.98 0.66 3 1 C5.39254576 1.22560676 7.78928123 1.40848595 10.1875 1.5625 C12.09595703 1.68818359 12.09595703 1.68818359 14.04296875 1.81640625 C15.01878906 1.87699219 15.99460937 1.93757813 17 2 C17 3.32 17 4.64 17 6 C14.69 6 12.38 6 10 6 C10.87493443 8.32225334 10.87493443 8.32225334 13.8359375 9.03515625 C15.00382812 9.37417969 16.17171875 9.71320313 17.375 10.0625 C18.53773437 10.40410156 19.70046875 10.74570313 20.8984375 11.09765625 C21.92195313 11.39542969 22.94546875 11.69320312 24 12 C24.99 12.33 25.98 12.66 27 13 C28.91765594 13.14939774 30.83946522 13.24810283 32.76171875 13.31640625 C34.43911133 13.37924805 34.43911133 13.37924805 36.15039062 13.44335938 C37.31763672 13.48267578 38.48488281 13.52199219 39.6875 13.5625 C40.86634766 13.60568359 42.04519531 13.64886719 43.25976562 13.69335938 C46.17305883 13.79951176 49.08643757 13.90156242 52 14 C52 14.33 52 14.66 52 15 C44.41 15 36.82 15 29 15 C29 15.66 29 16.32 29 17 C28.35933594 16.80664062 27.71867187 16.61328125 27.05859375 16.4140625 C18.55038262 13.68227794 18.55038262 13.68227794 9.875 11.625 C5.45203666 10.15067889 2.16855471 6.28590859 -1 3 C-0.67 2.01 -0.34 1.02 0 0 Z " fill="#E3C268" transform="translate(77,59)"/>
<path d="M0 0 C0.66 0 1.32 0 2 0 C4.44433951 4.88867901 3.05609621 11.85153098 2 17 C2.66 17.33 3.32 17.66 4 18 C4 18.66 4 19.32 4 20 C3.45287354 19.83862549 2.90574707 19.67725098 2.34204102 19.51098633 C-0.31575514 18.93110857 -2.75241404 18.85607063 -5.47265625 18.82421875 C-6.53806641 18.80037109 -7.60347656 18.77652344 -8.70117188 18.75195312 C-10.91452726 18.70951226 -13.12812297 18.67797984 -15.34179688 18.65820312 C-22.96236447 18.4616318 -28.99766127 16.94722432 -36 14 C-37.99659018 13.32318977 -39.99464622 12.65038501 -42 12 C-42 11.34 -42 10.68 -42 10 C-38.535 9.505 -38.535 9.505 -35 9 C-35 8.01 -35 7.02 -35 6 C-32.69 6 -30.38 6 -28 6 C-28 6.99 -28 7.98 -28 9 C-29.98 9.66 -31.96 10.32 -34 11 C-27.32137824 14.01651083 -21.36072234 16.57534294 -14 17 C-14.639375 16.46375 -15.27875 15.9275 -15.9375 15.375 C-18.42578361 12.50970372 -18.84004059 10.75904624 -19 7 C-18.34 6.01 -17.68 5.02 -17 4 C-17 6.64 -17 9.28 -17 12 C-16.360625 12.309375 -15.72125 12.61875 -15.0625 12.9375 C-13 14 -13 14 -12 15 C-6.34781388 15.62378257 -6.34781388 15.62378257 -1.5625 13.125 C1.05824552 9.5607861 1.17996366 7.40910978 1 3 C0.505 1.515 0.505 1.515 0 0 Z " fill="#FDF3BE" transform="translate(129,55)"/>
<path d="M0 0 C0.33 0 0.66 0 1 0 C1 18.48 1 36.96 1 56 C21.79 56 42.58 56 64 56 C63.505 52.535 63.505 52.535 63 49 C62.01 48.67 61.02 48.34 60 48 C60.66 47.67 61.32 47.34 62 47 C62.33 46.01 62.66 45.02 63 44 C61.68 43.67 60.36 43.34 59 43 C60.98 43 62.96 43 65 43 C65 47.62 65 52.24 65 57 C43.55 57 22.1 57 0 57 C0 38.19 0 19.38 0 0 Z " fill="#FEFDE3" transform="translate(42,41)"/>
<path d="M0 0 C9.24 0 18.48 0 28 0 C28 6.27 28 12.54 28 19 C18.76 19 9.52 19 0 19 C0 12.73 0 6.46 0 0 Z M2 1 C2 6.28 2 11.56 2 17 C9.92 17 17.84 17 26 17 C26 11.72 26 6.44 26 1 C18.08 1 10.16 1 2 1 Z " fill="#FCF1BB" transform="translate(82,117)"/>
<path d="M0 0 C2.375 1.625 2.375 1.625 4 4 C4.44912849 7.14389944 4.504106 9.05480125 3 11.875 C-0.37806895 13.77516379 -3.16618269 13.36512546 -7 13 C-9.46324069 9.30513897 -9.38991688 7.36706908 -9 3 C-6.84532543 -0.71082843 -4.00794956 -0.57256422 0 0 Z " fill="#FDFAEB" transform="translate(124,55)"/>
<path d="M0 0 C0.33 0 0.66 0 1 0 C1 20.46 1 40.92 1 62 C1.66 62 2.32 62 3 62 C3.3403125 63.918125 3.3403125 63.918125 3.6875 65.875 C4.16100084 68.06932132 4.16100084 68.06932132 5 70 C7.48313064 71.59688639 7.48313064 71.59688639 10 72 C10 72.33 10 72.66 10 73 C20.23 73.33 30.46 73.66 41 74 C41 74.33 41 74.66 41 75 C36.21281308 75.02471738 31.4256633 75.04286825 26.63842773 75.05493164 C25.00984042 75.05996065 23.38125763 75.06678465 21.75268555 75.07543945 C19.41193528 75.08756769 17.0712447 75.09324263 14.73046875 75.09765625 C14.00224411 75.10281754 13.27401947 75.10797882 12.52372742 75.11329651 C9.40397712 75.11364279 6.98366812 74.99455604 4 74 C-1.4485713 67.44142067 -0.50969055 59.74013784 -0.390625 51.66015625 C-0.38315516 50.1680121 -0.37746574 48.67585807 -0.37347412 47.18370056 C-0.35827597 43.27575103 -0.31904585 39.3684058 -0.2746582 35.46069336 C-0.23357879 31.46541516 -0.21543621 27.47003835 -0.1953125 23.47460938 C-0.15254466 15.6494655 -0.08436564 7.82481775 0 0 Z " fill="#E8C66E" transform="translate(38,42)"/>
<path d="M0 0 C0.99 0.33 1.98 0.66 3 1 C3.01030746 1.70664291 3.02061493 2.41328583 3.03123474 3.14134216 C3.12963276 9.83445651 3.23220305 16.52749281 3.33933926 23.22047329 C3.39426137 26.66054311 3.44762831 30.10062174 3.49731445 33.54077148 C3.55464242 37.50512546 3.61896252 41.46935186 3.68359375 45.43359375 C3.70030624 46.65582138 3.71701874 47.87804901 3.73423767 49.13731384 C3.82072514 54.16963582 3.94970208 59.11100431 4.59399414 64.10571289 C5.10240923 68.98227876 4.43283193 70.8054622 2 75 C0.0625 77 0.0625 77 -2 78 C-4.25 77.6875 -4.25 77.6875 -6 77 C-5.21625 76.566875 -4.4325 76.13375 -3.625 75.6875 C-0.78301625 74.10779753 -0.78301625 74.10779753 1 71 C1.29859032 67.96661109 1.29859032 67.96661109 1.24291992 64.46484375 C1.24481827 63.80598175 1.24671661 63.14711975 1.24867249 62.46829224 C1.25237598 60.29124029 1.24168202 58.11452229 1.23046875 55.9375 C1.22927654 54.42439819 1.22882387 52.91129562 1.2290802 51.39819336 C1.22751605 48.22732916 1.21923186 45.05657796 1.20581055 41.88574219 C1.18882083 37.82021542 1.18499628 33.75481287 1.18575573 29.68925476 C1.18548386 26.56488864 1.17999992 23.44054971 1.17275429 20.31619263 C1.16957102 18.81706956 1.16760101 17.31794341 1.16686058 15.81881714 C1.1646934 13.72421011 1.15594099 11.62973496 1.14526367 9.53515625 C1.14145187 8.342854 1.13764008 7.15055176 1.13371277 5.92211914 C1.13007854 2.93601571 1.13007854 2.93601571 0 0 Z " fill="#FEF9D3" transform="translate(152,39)"/>
<path d="M0 0 C1.07636719 0.00322266 2.15273438 0.00644531 3.26171875 0.00976562 C4.38964844 0.01814453 5.51757812 0.02652344 6.6796875 0.03515625 C7.81535156 0.03966797 8.95101562 0.04417969 10.12109375 0.04882812 C12.93234388 0.0606401 15.7434898 0.07711118 18.5546875 0.09765625 C18.5546875 1.41765625 18.5546875 2.73765625 18.5546875 4.09765625 C9.9746875 4.09765625 1.3946875 4.09765625 -7.4453125 4.09765625 C-7.4453125 3.10765625 -7.4453125 2.11765625 -7.4453125 1.09765625 C-4.83580014 -0.20709993 -2.91829965 -0.01535947 0 0 Z " fill="#EBD48A" transform="translate(55.4453125,73.90234375)"/>
<path d="M0 0 C2.475 0.495 2.475 0.495 5 1 C5.33 3.97 5.66 6.94 6 10 C7.32 10 8.64 10 10 10 C9.67 7.36 9.34 4.72 9 2 C9.99 2.33 10.98 2.66 12 3 C12 5.97 12 8.94 12 12 C8.04 12 4.08 12 0 12 C0 8.04 0 4.08 0 0 Z " fill="#EABD4A" transform="translate(128,89)"/>
<path d="M0 0 C4.95 0 9.9 0 15 0 C15 2.49895205 14.9151488 4.95535356 14.78125 7.44921875 C14.73613281 8.29677734 14.69101563 9.14433594 14.64453125 10.01757812 C14.59683594 10.89865234 14.54914063 11.77972656 14.5 12.6875 C14.45230469 13.58017578 14.40460938 14.47285156 14.35546875 15.39257812 C14.23768736 17.59509007 14.11893654 19.79755013 14 22 C17.3 22 20.6 22 24 22 C24 22.66 24 23.32 24 24 C20.04 24 16.08 24 12 24 C11.67 17.07 11.34 10.14 11 3 C7.37 2.67 3.74 2.34 0 2 C0 1.34 0 0.68 0 0 Z " fill="#E2B950" transform="translate(98,114)"/>
<path d="M0 0 C0.99 0 1.98 0 3 0 C2.75748505 0.78861923 2.75748505 0.78861923 2.5100708 1.59317017 C1.87139785 4.60682458 1.85695758 7.42726646 1.83886719 10.50927734 C1.83390228 11.15371292 1.82893738 11.7981485 1.82382202 12.46211243 C1.80925826 14.58673178 1.80240846 16.7112765 1.796875 18.8359375 C1.79111921 20.31800334 1.78536153 21.80006918 1.77960205 23.28213501 C1.76910882 26.38731227 1.76325505 29.49246377 1.75976562 32.59765625 C1.75428145 36.56769259 1.73024827 40.53738588 1.70179367 44.50731468 C1.6831297 47.56831851 1.67795972 50.62924026 1.67642975 53.69029617 C1.67341165 55.15346784 1.66541166 56.61663835 1.65224457 58.07975388 C1.63510289 60.13074299 1.6370833 62.18090103 1.64355469 64.23193359 C1.63990906 65.39679291 1.63626343 66.56165222 1.63250732 67.7618103 C2.04530738 71.39922943 3.1900421 73.84361912 5 77 C1.125 75.125 1.125 75.125 0 74 C-0.09443335 71.69946165 -0.11742128 69.39597827 -0.11352539 67.09350586 C-0.11367142 66.37159561 -0.11381744 65.64968536 -0.1139679 64.90589905 C-0.11326869 62.50885053 -0.10547595 60.11187877 -0.09765625 57.71484375 C-0.0957921 56.05717511 -0.09436818 54.39950593 -0.09336853 52.74183655 C-0.08954312 48.37045786 -0.07971265 43.99911219 -0.06866455 39.62774658 C-0.05845092 35.17045539 -0.05387101 30.71315889 -0.04882812 26.25585938 C-0.0380904 17.50389107 -0.02101371 8.75194964 0 0 Z " fill="#FEF9CF" transform="translate(37,38)"/>
<path d="M0 0 C11.22 0 22.44 0 34 0 C34 0.33 34 0.66 34 1 C18.655 1.495 18.655 1.495 3 2 C2.67 6.95 2.34 11.9 2 17 C4.64 17 7.28 17 10 17 C10 17.66 10 18.32 10 19 C6.7 19 3.4 19 0 19 C0 12.73 0 6.46 0 0 Z " fill="#FCF3BE" transform="translate(112,117)"/>
<path d="M0 0 C11.55 0 23.1 0 35 0 C35 6.27 35 12.54 35 19 C32.36 19 29.72 19 27 19 C27.33 18.34 27.66 17.68 28 17 C29.65 17 31.3 17 33 17 C33 12.05 33 7.1 33 2 C22.11 1.67 11.22 1.34 0 1 C0 0.67 0 0.34 0 0 Z " fill="#FCF3BE" transform="translate(45,117)"/>
<path d="M0 0 C3.35111834 2.23407889 4.81553956 3.26215824 5.8125 7.25 C5.874375 8.1575 5.93625 9.065 6 10 C7.65 10.33 9.3 10.66 11 11 C7.18483536 12.30062431 3.72438237 11.89369853 -0.25 11.5625 C-1.51328125 11.46066406 -2.7765625 11.35882813 -4.078125 11.25390625 C-5.04234375 11.17011719 -6.0065625 11.08632812 -7 11 C-7 9.68 -7 8.36 -7 7 C-6.01 7.33 -5.02 7.66 -4 8 C-3.67 7.01 -3.34 6.02 -3 5 C-2.34 4.67 -1.68 4.34 -1 4 C-0.34786708 1.97536745 -0.34786708 1.97536745 0 0 Z " fill="#FCF5D4" transform="translate(81,67)"/>
<path d="M0 0 C7.92 0 15.84 0 24 0 C24 0.99 24 1.98 24 3 C16.08 3 8.16 3 0 3 C0 2.01 0 1.02 0 0 Z " fill="#DDBC63" transform="translate(62,87)"/>
<path d="M0 0 C7.92 0 15.84 0 24 0 C24 0.99 24 1.98 24 3 C16.08 3 8.16 3 0 3 C0 2.01 0 1.02 0 0 Z " fill="#E2C06A" transform="translate(50,61)"/>
<path d="M0 0 C3.96 0 7.92 0 12 0 C12 0.99 12 1.98 12 3 C19.92 3 27.84 3 36 3 C36 3.33 36 3.66 36 4 C24.12 4 12.24 4 0 4 C0 2.68 0 1.36 0 0 Z " fill="#FEF9C9" transform="translate(50,87)"/>
<path d="M0 0 C2.31 0 4.62 0 7 0 C7 0.99 7 1.98 7 3 C5.02 3.66 3.04 4.32 1 5 C4.96 6.65 8.92 8.3 13 10 C13 10.33 13 10.66 13 11 C6.54647975 10.47955482 -0.06285897 9.75652976 -6 7 C-6.33 6.01 -6.66 5.02 -7 4 C-3.535 3.505 -3.535 3.505 0 3 C0 2.01 0 1.02 0 0 Z " fill="#F7F0C7" transform="translate(94,61)"/>
<path d="M0 0 C0.33 0 0.66 0 1 0 C1 19.14 1 38.28 1 58 C0.34 58 -0.32 58 -1 58 C-1.38218767 56.34385343 -1.71395102 54.67542976 -2 53 C-1.505 52.505 -1.505 52.505 -1 52 C-0.87718048 50.37420782 -0.82217496 48.74322996 -0.79467773 47.11303711 C-0.77473251 46.07203354 -0.75478729 45.03102997 -0.73423767 43.95848083 C-0.71752518 42.8262056 -0.70081268 41.69393036 -0.68359375 40.52734375 C-0.66281265 39.37456436 -0.64203156 38.22178497 -0.62062073 37.03407288 C-0.55500036 33.33527843 -0.49618245 29.63641041 -0.4375 25.9375 C-0.39432665 23.43684121 -0.35071276 20.93618999 -0.30664062 18.43554688 C-0.19930632 12.29044338 -0.09756357 6.14526596 0 0 Z " fill="#E5BB48" transform="translate(152,46)"/>
<path d="M0 0 C3.53677664 -0.32152515 5.3962104 -0.4131192 8.375 1.625 C10.46379841 4.67785921 10.54068562 6.36968224 10 10 C9 11.875 9 11.875 7 13 C4.28121737 13.24131207 1.7407889 13.1347929 -1 13 C-1.33 12.34 -1.66 11.68 -2 11 C-0.68 11 0.64 11 2 11 C2 10.34 2 9.68 2 9 C3.32 9 4.64 9 6 9 C6 7.02 6 5.04 6 3 C4.02 2.34 2.04 1.68 0 1 C0 0.67 0 0.34 0 0 Z " fill="#FCFADB" transform="translate(118,55)"/>
<path d="M0 0 C6.6 0 13.2 0 20 0 C20 0.99 20 1.98 20 3 C13.4 3 6.8 3 0 3 C0 2.01 0 1.02 0 0 Z " fill="#E7CD85" transform="translate(50,49)"/>
<path d="M0 0 C4.62 0 9.24 0 14 0 C14 1.32 14 2.64 14 4 C11.69 4 9.38 4 7 4 C7.33 4.99 7.66 5.98 8 7 C6 7 6 7 3.4375 4.625 C1 2 1 2 0 0 Z " fill="#FDF1B8" transform="translate(80,61)"/>
<path d="M0 0 C4.28025299 3.39468341 6.0082369 7.73531366 7 13 C6.5824371 15.99343792 6.1884661 16.8115339 4 19 C3.32713788 16.58490559 2.66153988 14.16819644 2 11.75 C1.71382812 10.72712891 1.71382812 10.72712891 1.421875 9.68359375 C0.50042956 6.29399088 0 3.54221024 0 0 Z " fill="#E5C262" transform="translate(132,75)"/>
<path d="M0 0 C1.65 0 3.3 0 5 0 C5 1.65 5 3.3 5 5 C8.465 6.485 8.465 6.485 12 8 C11.34 8.66 10.68 9.32 10 10 C6.96192975 9.80608062 4.7553659 9.4948949 2.1875 7.8125 C0.5471301 5.30877752 0.32678037 2.9410233 0 0 Z " fill="#E5BA53" transform="translate(85,69)"/>
<path d="M0 0 C0.66 0 1.32 0 2 0 C2 4.95 2 9.9 2 15 C0.02 15.66 -1.96 16.32 -4 17 C-4.96877057 19.03243548 -4.96877057 19.03243548 -5 21 C-5.99 20.67 -6.98 20.34 -8 20 C-6.84826645 17.53199953 -5.95216435 15.95216435 -4 14 C-2.68 14 -1.36 14 0 14 C0 9.38 0 4.76 0 0 Z " fill="#FEFCE9" transform="translate(76,119)"/>
<path d="M0 0 C1.32 0.33 2.64 0.66 4 1 C4 1.66 4 2.32 4 3 C14.23 3 24.46 3 35 3 C35 3.33 35 3.66 35 4 C30.33691801 4.02468646 25.67387392 4.04285349 21.01074219 4.05493164 C19.42382139 4.05996588 17.83690523 4.06679369 16.25 4.07543945 C13.97134251 4.08754482 11.69274624 4.09323733 9.4140625 4.09765625 C8.34679428 4.10539818 8.34679428 4.10539818 7.25796509 4.11329651 C2.22774341 4.11387171 2.22774341 4.11387171 0 3 C0 2.01 0 1.02 0 0 Z " fill="#FFFDE9" transform="translate(41,115)"/>
<path d="M0 0 C6.0546875 -0.1953125 6.0546875 -0.1953125 8 0 C8.66 0.66 9.32 1.32 10 2 C9.34 2 8.68 2 8 2 C7.34 3.32 6.68 4.64 6 6 C4.02 5.34 2.04 4.68 0 4 C0 2.68 0 1.36 0 0 Z " fill="#FCF9DE" transform="translate(94,87)"/>
<path d="M0 0 C2 3.75 2 3.75 2 6 C3.65 6.33 5.3 6.66 7 7 C3.87819599 7.96661363 1.47916205 7.98988909 -1.75 7.5625 C-2.94882813 7.40974609 -2.94882813 7.40974609 -4.171875 7.25390625 C-4.77515625 7.17011719 -5.3784375 7.08632812 -6 7 C-6 5.68 -6 4.36 -6 3 C-4.02 3 -2.04 3 0 3 C0 2.01 0 1.02 0 0 Z " fill="#F0DC9A" transform="translate(85,71)"/>
<path d="M0 0 C-0.33 1.32 -0.66 2.64 -1 4 C-1.99 3.34 -2.98 2.68 -4 2 C-10.31867657 1.54565616 -10.31867657 1.54565616 -16 4 C-15.67 2.68 -15.34 1.36 -15 0 C-4.21052632 -2.10526316 -4.21052632 -2.10526316 0 0 Z " fill="#FDF8D1" transform="translate(129,51)"/>
<path d="M0 0 C2.00293347 3.00440021 2.49271626 4.70993945 3.125 8.1875 C3.29257813 9.08855469 3.46015625 9.98960938 3.6328125 10.91796875 C3.75398437 11.60503906 3.87515625 12.29210937 4 13 C2.68 13 1.36 13 0 13 C-0.39036513 11.39950296 -0.76178619 9.79437629 -1.125 8.1875 C-1.33382812 7.29417969 -1.54265625 6.40085937 -1.7578125 5.48046875 C-2 3 -2 3 0 0 Z " fill="#FDF2B7" transform="translate(134,86)"/>
<path d="M0 0 C6.6 0 13.2 0 20 0 C20 1.32 20 2.64 20 4 C18.02 4 16.04 4 14 4 C14 3.01 14 2.02 14 1 C9.38 1 4.76 1 0 1 C0 0.67 0 0.34 0 0 Z " fill="#F5EAB9" transform="translate(72,86)"/>
<path d="M0 0 C1.32 0.33 2.64 0.66 4 1 C4.28875 2.216875 4.5775 3.43375 4.875 4.6875 C5.47593013 7.13414411 6.1082664 9.24660681 7.125 11.5625 C8.27604821 14.76899145 8.13245383 17.62242735 8 21 C5.96335792 17.305626 4.72791212 13.3725972 3.4375 9.375 C1.95140394 4.59584439 1.95140394 4.59584439 0 0 Z " fill="#FEF4C4" transform="translate(133,75)"/>
<path d="M0 0 C0 1.65 0 3.3 0 5 C-3.63 5 -7.26 5 -11 5 C-11 4.67 -11 4.34 -11 4 C-9.35 4 -7.7 4 -6 4 C-6 3.01 -6 2.02 -6 1 C-3 0 -3 0 0 0 Z " fill="#F5EBC4" transform="translate(76,48)"/>
<path d="M0 0 C3.53677664 -0.32152515 5.3962104 -0.4131192 8.375 1.625 C10.45245486 4.66128018 10.54896129 6.39254006 10 10 C9.01 10.66 8.02 11.32 7 12 C7.33 9.03 7.66 6.06 8 3 C5.36 2.34 2.72 1.68 0 1 C0 0.67 0 0.34 0 0 Z " fill="#FDF2BE" transform="translate(118,55)"/>
<path d="M0 0 C2.64 0 5.28 0 8 0 C8.33 0.99 8.66 1.98 9 3 C5.7 3 2.4 3 -1 3 C-0.67 2.01 -0.34 1.02 0 0 Z " fill="#DFC172" transform="translate(86,61)"/>
<path d="M0 0 C2.97 0 5.94 0 9 0 C9 0.99 9 1.98 9 3 C6.03 3 3.06 3 0 3 C0 2.01 0 1.02 0 0 Z " fill="#D6BF6E" transform="translate(50,87)"/>
<path d="M0 0 C0.35707031 0.48082031 0.71414062 0.96164063 1.08203125 1.45703125 C3.85054672 3.68424838 6.18159023 3.51394011 9.6875 3.6875 C10.86699219 3.75324219 12.04648438 3.81898437 13.26171875 3.88671875 C14.16535156 3.92410156 15.06898437 3.96148437 16 4 C16 4.33 16 4.66 16 5 C13.75006641 5.02707139 11.50003905 5.04642829 9.25 5.0625 C7.99703125 5.07410156 6.7440625 5.08570313 5.453125 5.09765625 C2.71463499 5.02021027 0.58119707 4.82780815 -2 4 C-2 3.01 -2 2.02 -2 1 C-1.34 0.67 -0.68 0.34 0 0 Z " fill="#FEFAD9" transform="translate(78,56)"/>
<path d="M0 0 C0 0.66 0 1.32 0 2 C-5.75 5 -5.75 5 -8 5 C-6.19780722 -0.02039417 -5.34443412 -1.60333024 0 0 Z " fill="#E3C36B" transform="translate(47,37)"/>
<path d="M0 0 C2.4375 1.3125 2.4375 1.3125 3.25 3.4375 C3.311875 4.05625 3.37375 4.675 3.4375 5.3125 C-0.35838866 4.77023019 -2.03461993 3.11122437 -4.5625 0.3125 C-2.5625 -0.6875 -2.5625 -0.6875 0 0 Z " fill="#E2C16C" transform="translate(149.5625,36.6875)"/>
<path d="M0 0 C2.3129482 2.3129482 2.49580975 3.47904875 3.125 6.625 C3.29257812 7.44226563 3.46015625 8.25953125 3.6328125 9.1015625 C3.81457031 10.04128906 3.81457031 10.04128906 4 11 C3.01 10.67 2.02 10.34 1 10 C-0.60725635 6.78548731 -0.05748185 3.56387464 0 0 Z " fill="#FDEDB1" transform="translate(41,102)"/>
<path d="M0 0 C1.27875 0.28875 2.5575 0.5775 3.875 0.875 C4.95394531 1.11863281 4.95394531 1.11863281 6.0546875 1.3671875 C8 2 8 2 10 4 C7.03 3.67 4.06 3.34 1 3 C0.67 2.01 0.34 1.02 0 0 Z " fill="#FDF7D3" transform="translate(97,68)"/>
<path d="M0 0 C1.98 0 3.96 0 6 0 C6 0.99 6 1.98 6 3 C4.02 3 2.04 3 0 3 C0 2.01 0 1.02 0 0 Z " fill="#D9C177" transform="translate(94,87)"/>
<path d="M0 0 C0.66 0.33 1.32 0.66 2 1 C2 1.66 2 2.32 2 3 C4.31 3 6.62 3 9 3 C9 3.33 9 3.66 9 4 C4.545 4.495 4.545 4.495 0 5 C-0.66 4.01 -1.32 3.02 -2 2 C-1.34 2 -0.68 2 0 2 C0 1.34 0 0.68 0 0 Z " fill="#E8C564" transform="translate(84,65)"/>
</svg>
